<!-- A sprite that contains all SVG files -->
<svg xmlns="http://www.w3.org/2000/svg" xmlns:xlink="http://www.w3.org/1999/xlink">
  <defs>
    <symbol id="triangle" xmlns="http://www.w3.org/2000/svg" viewBox="0 0 512 512">
      <path d="M352 320c88.4 0 160-71.6 160-160c0-15.3-2.2-30.1-6.2-44.2c-3.1-10.8-16.4-13.2-24.3-5.3l-76.8 76.8c-3 3-7.1 4.7-11.3 4.7H336c-8.8 0-16-7.2-16-16V118.6c0-4.2 1.7-8.3 4.7-11.3l76.8-76.8c7.9-7.9 5.4-21.2-5.3-24.3C382.1 2.2 367.3 0 352 0C263.6 0 192 71.6 192 160c0 19.1 3.4 37.5 9.5 54.5L19.9 396.1C7.2 408.8 0 426.1 0 444.1C0 481.6 30.4 512 67.9 512c18 0 35.3-7.2 48-19.9L297.5 310.5c17 6.2 35.4 9.5 54.5 9.5zM80 456c-13.3 0-24-10.7-24-24s10.7-24 24-24s24 10.7 24 24s-10.7 24-24 24z"/>
    </symbol>
    <symbol id="arrowUp" xmlns="http://www.w3.org/2000/svg" viewBox="0 0 512 512">
      <path d="M96 0C78.3 0 64 14.3 64 32v96h64V32c0-17.7-14.3-32-32-32zM288 0c-17.7 0-32 14.3-32 32v96h64V32c0-17.7-14.3-32-32-32zM32 160c-17.7 0-32 14.3-32 32s14.3 32 32 32v32c0 77.4 55 142 128 156.8V480c0 17.7 14.3 32 32 32s32-14.3 32-32V412.8C297 398 352 333.4 352 256V224c17.7 0 32-14.3 32-32s-14.3-32-32-32H32z"/>
    </symbol>
    <symbol id="upDown" xmlns="http://www.w3.org/2000/svg" viewBox="0 0 512 512">
      <path d="M465 7c-8.5-8.5-22-9.4-31.6-2.1l-104 80c-5.9 4.5-9.4 11.6-9.4 19v54.1l-85.6 85.6c6.7 4.2 13 9.3 18.8 15.1s10.9 12.2 15.1 18.8L353.9 192H408c7.5 0 14.5-3.5 19-9.4l80-104c7.4-9.6 6.5-23.1-2.1-31.6L465 7zM121.4 281.4l-112 112c-12.5 12.5-12.5 32.8 0 45.3l64 64c12.5 12.5 32.8 12.5 45.3 0l112-112c30.2-30.2 30.2-79.1 0-109.3s-79.1-30.2-109.3 0z"/>
    </symbol>
    <symbol id="box" xmlns="http://www.w3.org/2000/svg" viewBox="0 0 512 512">
      <path d="M343.9 213.4L245.3 312l65.4 65.4c7.9 7.9 11.1 19.4 8.4 30.3s-10.8 19.6-21.5 22.9l-256 80c-11.4 3.5-23.8 .5-32.2-7.9S-2.1 481.8 1.5 470.5l80-256c3.3-10.7 12-18.9 22.9-21.5s22.4 .5 30.3 8.4L200 266.7l98.6-98.6c-14.3-14.6-14.2-38 .3-52.5l95.4-95.4c26.9-26.9 70.5-26.9 97.5 0s26.9 70.5 0 97.5l-95.4 95.4c-14.5 14.5-37.9 14.6-52.5 .3z"/>
    </symbol>
    <symbol id="hexa" xmlns="http://www.w3.org/2000/svg" viewBox="0 0 512 512">
      <path d="M78.6 5C69.1-2.4 55.6-1.5 47 7L7 47c-8.5 8.5-9.4 22-2.1 31.6l80 104c4.5 5.9 11.6 9.4 19 9.4h54.1l109 109c-14.7 29-10 65.4 14.3 89.6l112 112c12.5 12.5 32.8 12.5 45.3 0l64-64c12.5-12.5 12.5-32.8 0-45.3l-112-112c-24.2-24.2-60.6-29-89.6-14.3l-109-109V104c0-7.5-3.5-14.5-9.4-19L78.6 5zM19.9 396.1C7.2 408.8 0 426.1 0 444.1C0 481.6 30.4 512 67.9 512c18 0 35.3-7.2 48-19.9L233.7 374.3c-7.8-20.9-9-43.6-3.6-65.1l-61.7-61.7L19.9 396.1zM512 144c0-10.5-1.1-20.7-3.2-30.5c-2.4-11.2-16.1-14.1-24.2-6l-63.9 63.9c-3 3-7.1 4.7-11.3 4.7H352c-8.8 0-16-7.2-16-16V102.6c0-4.2 1.7-8.3 4.7-11.3l63.9-63.9c8.1-8.1 5.2-21.8-6-24.2C388.7 1.1 378.5 0 368 0C288.5 0 224 64.5 224 144l0 .8 85.3 85.3c36-9.1 75.8 .5 104 28.7L429 274.5c49-23 83-72.8 83-130.5zM104 432c0 13.3-10.7 24-24 24s-24-10.7-24-24s10.7-24 24-24s24 10.7 24 24z"/>
    </symbol>
    <symbol id="cross" xmlns="http://www.w3.org/2000/svg" viewBox="0 0 384 512">
      <path d="M176 88v40H336V88c0-4.4-3.6-8-8-8H184c-4.4 0-8 3.6-8 8zm-48 40V88c0-30.9 25.1-56 56-56H328c30.9 0 56 25.1 56 56v40h28.1c12.7 0 24.9 5.1 33.9 14.1l51.9 51.9c9 9 14.1 21.2 14.1 33.9V304H384V288c0-17.7-14.3-32-32-32s-32 14.3-32 32v16H192V288c0-17.7-14.3-32-32-32s-32 14.3-32 32v16H0V227.9c0-12.7 5.1-24.9 14.1-33.9l51.9-51.9c9-9 21.2-14.1 33.9-14.1H128zM0 416V336H128v16c0 17.7 14.3 32 32 32s32-14.3 32-32V336H320v16c0 17.7 14.3 32 32 32s32-14.3 32-32V336H512v80c0 35.3-28.7 64-64 64H64c-35.3 0-64-28.7-64-64z"/>
    </symbol>
  </defs>
</svg>